HIERARCHY
ROOT Torso
{
	OFFSET 0.000000 0.000000 0.000000
	CHANNELS 6 Xposition Yposition Zposition Zrotation Yrotation Xrotation 
	JOINT LHip
	{
		OFFSET 0.000000 0.000000 0.000000
		CHANNELS 3 Zrotation Yrotation Xrotation
		JOINT LThigh
		{
			OFFSET -0.010000 0.055000 -0.055000
			CHANNELS 3 Zrotation Yrotation Xrotation
			JOINT LLeg
			{
				OFFSET 0.015000 0.000000 -0.160000
				CHANNELS 3 Zrotation Yrotation Xrotation
				JOINT LFoot
				{
					OFFSET -0.010000 0.000000 -0.160000
					CHANNELS 3 Zrotation Yrotation Xrotation
					JOINT LToes
					{
						OFFSET 0.090000 0.000000 0.000000
						CHANNELS 3 Zrotation Yrotation Xrotation
						End Site
						{
							OFFSET 0.000000 0.000000 0.000000
						}
					}
				}
			}
		}
	}
	JOINT RHip
	{
		OFFSET 0.000000 0.000000 0.000000
		CHANNELS 3 Zrotation Yrotation Xrotation
		JOINT RThigh
		{
			OFFSET -0.010000 -0.055000 -0.055000
			CHANNELS 3 Zrotation Yrotation Xrotation
			JOINT RLeg
			{
				OFFSET 0.015000 0.000000 -0.160000
				CHANNELS 3 Zrotation Yrotation Xrotation
				JOINT RFoot
				{
					OFFSET -0.010000 0.000000 -0.160000
					CHANNELS 3 Zrotation Yrotation Xrotation
					JOINT RToes
					{
						OFFSET 0.090000 0.000000 0.000000
						CHANNELS 3 Zrotation Yrotation Xrotation
						End Site
						{
							OFFSET 0.000000 0.000000 0.000000
						}
					}
				}
			}
		}
	}
	JOINT Neck
	{
		OFFSET 0.000000 0.000000 0.135000
		CHANNELS 3 Zrotation Yrotation Xrotation
		JOINT Head
		{
			OFFSET 0.000000 0.000000 0.075000
			CHANNELS 3 Zrotation Yrotation Xrotation
			End Site
			{
				OFFSET 0.000000 0.000000 0.000000
			}
		}
	}
	JOINT LUpperarm
	{
		OFFSET 0.000000 0.098000 0.150000
		CHANNELS 3 Zrotation Yrotation Xrotation
		JOINT LLowerarm
		{
			OFFSET 0.090000 0.000000 0.009000
			CHANNELS 3 Zrotation Yrotation Xrotation
			JOINT LHand
			{
				OFFSET 0.105000 0.000000 0.000000
				CHANNELS 3 Zrotation Yrotation Xrotation
				End Site
				{
					OFFSET 0.000000 0.000000 0.000000
				}
			}
		}
	}
	JOINT RUpperarm
	{
		OFFSET 0.000000 -0.098000 0.150000
		CHANNELS 3 Zrotation Yrotation Xrotation
		JOINT RLowerarm
		{
			OFFSET 0.090000 0.000000 0.009000
			CHANNELS 3 Zrotation Yrotation Xrotation
			JOINT RHand
			{
				OFFSET 0.105000 0.000000 0.000000
				CHANNELS 3 Zrotation Yrotation Xrotation
				End Site
				{
					OFFSET 0.000000 0.000000 0.000000
				}
			}
		}
	}
}
MOTION
Frames: 18
Frame Time: 0.040000
0.459635 0.426983 -0.020641 -75.514978 -74.373819 -2.571940 -14.311630 -18.703485 -25.906275 -30.932712 -7.309024 6.495754 -4.265097 22.152251 20.009324 -6.429439 21.883858 -38.550382 0.243800 3.177198 8.772496 -13.720386 -10.378197 2.721602 13.933868 8.418829 -6.857483 -16.292045 -3.246570 11.725108 -16.879974 -10.244285 -37.199683 -0.810100 5.743797 -16.042792 -8.011085 -14.954810 -6.709365 -2.738599 2.670999 5.693397 -91.337551 -36.624235 -60.704070 41.078664 -50.112370 -12.804094 0.000000 0.000000 -17.672891 -165.736146 70.242155 24.316608 -45.334159 8.247374 -8.761196 0.000000 0.000000 -20.794590 
0.459727 0.426975 -0.020690 -75.718125 -74.458559 -2.137026 -14.332765 -18.773278 -26.012953 -30.958634 -7.332711 6.432133 -4.235571 22.188855 19.890233 -6.454581 21.985412 -38.403182 0.233100 3.107198 8.577196 -13.628853 -10.351439 2.506957 13.827436 8.394595 -6.965682 -16.291181 -3.201774 11.823791 -16.897053 -10.215105 -37.214683 -0.807200 5.733797 -16.014092 -8.061567 -15.138247 -6.918599 -2.727699 2.665499 5.680197 -90.490094 -36.786911 -62.752701 37.407468 -50.253645 -10.505695 0.000000 0.000000 -19.291491 -165.570848 70.258719 24.469070 -45.258665 8.235852 -8.785596 0.000000 0.000000 -20.863290 
0.459807 0.426975 -0.020751 -75.993460 -74.456822 -1.670204 -14.344583 -18.890242 -26.085753 -30.961041 -7.377110 6.393674 -4.207008 22.220439 19.793846 -6.480800 22.093666 -38.232982 0.220600 3.023198 8.343196 -13.515086 -10.369894 2.335542 13.735217 8.336161 -7.061725 -16.288766 -3.167698 11.915042 -16.918446 -10.204592 -37.268283 -0.797600 5.700297 -15.917192 -8.035899 -15.283166 -7.122277 -2.692799 2.664399 5.670097 -90.078375 -37.074865 -64.388498 34.804378 -50.317387 -9.022795 0.000000 0.000000 -19.780890 -165.374098 70.321498 24.623395 -45.177238 8.230022 -8.784896 0.000000 0.000000 -20.912190 
0.459884 0.426989 -0.020817 -76.472138 -74.251846 -1.003213 -14.321342 -19.133385 -26.138152 -30.929962 -7.492022 6.399161 -4.179003 22.240884 19.739993 -6.507461 22.216767 -38.039382 0.206400 2.925099 8.070296 -13.324720 -10.510056 2.197922 13.668876 8.198078 -7.165840 -16.281934 -3.151473 11.987549 -16.938759 -10.219034 -37.357683 -0.780700 5.641097 -15.746592 -7.930332 -15.475321 -7.360275 -2.634899 2.668599 5.667797 -90.397791 -37.648254 -65.238234 33.643890 -50.380514 -8.258696 0.000000 0.000000 -19.657090 -165.075785 70.477020 24.785761 -45.075900 8.257910 -8.767296 0.000000 0.000000 -20.930390 
0.459961 0.427011 -0.020895 -77.113624 -73.809563 -0.151228 -14.261399 -19.523185 -26.188957 -30.859234 -7.693316 6.452073 -4.155664 22.243235 19.736039 -6.533895 22.357774 -37.824682 0.190800 2.812799 7.757896 -13.055768 -10.794609 2.074241 13.660178 7.970411 -7.279389 -16.268056 -3.162112 12.032867 -16.953268 -10.274954 -37.485983 -0.757500 5.558597 -15.508892 -7.723970 -15.719057 -7.664049 -2.552799 2.674699 5.671897 -91.609001 -38.607587 -65.079878 34.144998 -50.463980 -8.138896 0.000000 0.000000 -19.359791 -164.697209 70.711749 24.931898 -44.963991 8.346478 -8.744296 0.000000 0.000000 -20.915190 
0.460047 0.427036 -0.020980 -77.789389 -73.169772 0.767936 -14.181719 -20.031431 -26.250905 -30.753316 -7.966969 6.539732 -4.140865 22.224827 19.781822 -6.556869 22.498099 -37.601783 0.174800 2.693099 7.425396 -12.744591 -11.199972 1.944491 13.730866 7.671371 -7.390944 -16.247254 -3.204260 12.044043 -16.961290 -10.384245 -37.657982 -0.729800 5.457997 -15.219692 -7.405931 -15.959652 -8.034885 -2.447699 2.676799 5.678097 -93.733623 -40.034273 -63.982852 36.226852 -50.515790 -8.632396 0.000000 0.000000 -19.065591 -164.348026 70.959336 25.034697 -44.860142 8.505074 -8.725496 0.000000 0.000000 -20.876690 
0.460124 0.427055 -0.021080 -78.404183 -72.413188 1.644799 -14.108595 -20.599707 -26.313663 -30.632888 -8.284656 6.643601 -4.133279 22.192202 19.870339 -6.572550 22.608217 -37.387183 0.159400 2.572099 7.089496 -12.443539 -11.672292 1.804340 13.863058 7.323138 -7.481397 -16.222116 -3.271629 12.017888 -16.968813 -10.535738 -37.871982 -0.699200 5.344897 -14.894793 -6.974546 -16.136373 -8.434757 -2.317799 2.661499 5.677997 -96.679622 -41.978522 -62.219543 39.569998 -50.426006 -9.752495 0.000000 0.000000 -18.798691 -164.136872 71.147336 25.071243 -44.786074 8.728263 -8.714596 0.000000 0.000000 -20.829490 
0.460179 0.427066 -0.021193 -78.876977 -71.652655 2.371808 -14.067888 -21.151506 -26.361080 -30.517541 -8.604948 6.741327 -4.129173 22.155080 19.987925 -6.581245 22.674705 -37.185883 0.144800 2.452699 6.758397 -12.202159 -12.141546 1.664013 14.030015 6.966957 -7.533740 -16.195475 -3.351847 11.957832 -16.979370 -10.718532 -38.119482 -0.669700 5.233397 -14.575593 -6.454475 -16.188737 -8.815564 -2.170499 2.624899 5.665697 -100.223300 -44.367831 -60.080041 43.778677 -50.060469 -11.539094 0.000000 0.000000 -18.480591 -164.131254 71.222870 25.043145 -44.755484 8.985357 -8.707196 0.000000 0.000000 -20.782990 
0.460221 0.427069 -0.021325 -79.182520 -71.003869 2.873202 -14.080366 -21.614628 -26.368204 -30.415505 -8.878485 6.815729 -4.123101 22.126837 20.112443 -6.587600 22.702683 -36.980583 0.130800 2.331099 6.421697 -12.054506 -12.535919 1.549567 14.197787 6.647364 -7.532219 -16.170316 -3.427902 11.880162 -16.997235 -10.918586 -38.393882 -0.643100 5.130297 -14.280693 -5.890850 -16.084867 -9.107272 -2.014199 2.567299 5.641097 -103.985318 -46.955710 -57.763217 48.483120 -49.306013 -14.036193 0.000000 0.000000 -18.124191 -164.381100 71.144651 24.967876 -44.771000 9.237955 -8.698096 0.000000 0.000000 -20.740090 
0.460248 0.427069 -0.021463 -79.379038 -70.542818 3.147290 -14.154117 -21.941092 -26.296293 -30.330433 -9.069632 6.867401 -4.108042 22.123359 20.218854 -6.596326 22.706178 -36.753883 0.116700 2.202799 6.066497 -12.008138 -12.801188 1.498438 14.317398 6.383085 -7.465117 -16.149545 -3.479423 11.811943 -17.030271 -11.105186 -38.684982 -0.617000 5.026997 -13.985493 -5.317593 -15.844239 -9.247660 -1.849499 2.487399 5.600797 -107.508910 -49.367435 -55.342245 53.418909 -48.078156 -17.291292 0.000000 0.000000 -17.644691 -164.872799 70.909095 24.855187 -44.830064 9.466792 -8.688096 0.000000 0.000000 -20.683590 
0.460268 0.427066 -0.021596 -79.592539 -70.299305 3.248510 -14.282462 -22.102782 -26.096739 -30.266465 -9.162962 6.910570 -4.076550 22.159684 20.293100 -6.607429 22.694253 -36.516183 0.103700 2.076699 5.717497 -12.042594 -12.910499 1.560594 14.342607 6.178233 -7.328122 -16.133595 -3.485168 11.773829 -17.079148 -11.246800 -38.969182 -0.590900 4.921698 -13.685293 -4.810660 -15.519629 -9.183412 -1.698099 2.406799 5.559097 -110.288362 -51.123850 -52.845144 58.355579 -46.344531 -21.335990 0.000000 0.000000 -16.769992 -165.520459 70.555708 24.723153 -44.922353 9.656839 -8.678496 0.000000 0.000000 -20.594690 
0.460279 0.427069 -0.021709 -79.935446 -70.247156 3.261678 -14.450634 -22.106837 -25.744703 -30.224702 -9.169752 6.962617 -4.027480 22.238549 20.332202 -6.617485 22.667158 -36.298383 0.093400 1.971299 5.426397 -12.123727 -12.876548 1.765153 14.256621 6.024702 -7.133735 -16.121728 -3.437157 11.772899 -17.138909 -11.325353 -39.220882 -0.566200 4.819398 -13.394293 -4.406705 -15.179398 -8.897023 -1.566999 2.332099 5.523397 -112.011394 -51.889024 -50.321594 63.062056 -44.199830 -26.148087 0.000000 0.000000 -15.196292 -166.222030 70.136440 24.589622 -45.032623 9.805954 -8.670396 0.000000 0.000000 -20.476090 
0.460292 0.427077 -0.021797 -80.214276 -70.382855 3.035080 -14.657057 -21.949251 -25.292734 -30.206597 -9.092529 7.013232 -3.975322 22.340308 20.340688 -6.623459 22.622100 -36.131083 0.087100 1.903699 5.239697 -12.276734 -12.700436 2.082677 14.108493 5.938514 -6.896761 -16.113436 -3.357005 11.800662 -17.201876 -11.350627 -39.427582 -0.543700 4.724198 -13.123493 -4.099190 -14.784688 -8.436862 -1.461599 2.265799 5.497297 -112.681230 -51.626147 -47.906608 67.376677 -41.863861 -31.625185 0.000000 0.000000 -12.800294 -166.955354 69.666852 24.436622 -45.169462 9.921297 -8.667696 0.000000 0.000000 -20.343290 
0.460301 0.427086 -0.021855 -80.183797 -70.693164 2.413645 -14.893299 -21.644106 -24.829457 -30.217289 -8.939942 7.040111 -3.933434 22.440314 20.332025 -6.623505 22.558836 -36.031483 0.084500 1.875499 5.161797 -12.529315 -12.399492 2.447515 13.958720 5.936407 -6.636810 -16.108296 -3.271995 11.837727 -17.257886 -11.346453 -39.577882 -0.527000 4.652298 -12.919394 -3.867433 -14.278352 -7.888706 -1.386099 2.210699 5.480797 -112.573388 -50.588608 -45.735608 71.206920 -39.593308 -37.540983 0.000000 0.000000 -9.601795 -167.709717 69.163477 24.246516 -45.340080 10.012268 -8.673296 0.000000 0.000000 -20.220690 
0.460306 0.427088 -0.021880 -79.888108 -71.099473 1.525483 -15.129752 -21.255899 -24.404055 -30.260096 -8.747403 7.041295 -3.901446 22.527141 20.322063 -6.615175 22.478175 -36.001883 0.084500 1.874699 5.159397 -12.847347 -12.037890 2.810079 13.818407 5.998288 -6.378198 -16.107505 -3.192964 11.866799 -17.302799 -11.318699 -39.663782 -0.518100 4.613298 -12.808694 -3.693286 -13.709318 -7.325506 -1.336599 2.161799 5.467097 -112.067702 -49.162188 -43.873141 74.506860 -37.608516 -43.549080 0.000000 0.000000 -5.699297 -168.434068 68.665007 24.027182 -45.531526 10.097221 -8.690196 0.000000 0.000000 -20.136590 
0.460303 0.427086 -0.021875 -79.380846 -71.543326 0.474816 -15.341618 -20.834907 -24.049344 -30.328476 -8.537082 7.019655 -3.879288 22.595261 20.321993 -6.600298 22.386459 -36.029083 0.085800 1.889799 5.201297 -13.198412 -11.663811 3.139031 13.699810 6.108757 -6.134232 -16.111170 -3.128458 11.877163 -17.335466 -11.275563 -39.690382 -0.515700 4.602898 -12.779394 -3.564852 -13.124422 -6.801946 -1.309499 2.116799 5.450797 -111.387913 -47.613610 -42.363413 77.261676 -36.032091 -49.237278 0.000000 0.000000 -1.195399 -169.103168 68.195621 23.796197 -45.731956 10.180894 -8.720896 0.000000 0.000000 -20.110890 
0.460303 0.427083 -0.021844 -78.671531 -71.993944 -0.695120 -15.514082 -20.414301 -23.792880 -30.404049 -8.318392 6.974317 -3.867867 22.639857 20.337504 -6.584038 22.301607 -36.086283 0.087500 1.907499 5.250197 -13.557679 -11.303923 3.413264 13.625092 6.263793 -5.916782 -16.117160 -3.084998 11.864268 -17.351718 -11.235807 -39.668482 -0.519100 4.617498 -12.820694 -3.474129 -12.550822 -6.358002 -1.301299 2.078199 5.429397 -110.593481 -46.076987 -41.241760 79.420654 -34.904906 -54.135077 0.000000 0.000000 3.779198 -169.674295 67.788367 23.565680 -45.930933 10.259835 -8.764396 0.000000 0.000000 -20.141490 
0.460320 0.427086 -0.021786 -77.854572 -72.417880 -1.876253 -15.639642 -20.027936 -23.637207 -30.468153 -8.104271 6.906867 -3.865575 22.663435 20.372138 -6.568861 22.227518 -36.160283 0.089300 1.927599 5.305697 -13.893132 -10.981429 3.626899 13.595967 6.446924 -5.739497 -16.122745 -3.061064 11.827070 -17.351217 -11.206151 -39.608582 -0.526800 4.651298 -12.916594 -3.429016 -12.039104 -6.009347 -1.309899 2.047899 5.402497 -109.706219 -44.639339 -40.512436 80.932510 -34.228062 -57.842376 0.000000 0.000000 8.815796 -170.085364 67.482626 23.337247 -46.118721 10.337931 -8.820396 0.000000 0.000000 -20.200590 
